<svg width="189" height="30" viewBox="0 0 189 30" fill="none" xmlns="http://www.w3.org/2000/svg">
<path d="M26.7373 22.7323H14.3879V13.7269H4.58637V4.25486H26.578V16.2803H27.1546C27.539 14.7428 28.0606 13.2602 28.7195 11.8325C29.4334 10.3499 30.312 9.05953 31.3553 7.96132C32.4535 6.8082 33.7713 5.90217 35.3088 5.24325C36.8463 4.58432 38.6584 4.25486 40.745 4.25486H44.7809V15.4566H35.7206C32.7006 15.4566 30.4218 16.3626 28.8843 18.1747C27.7508 19.47 27.0352 20.9892 26.7373 22.7323Z" fill="white"/>
<path d="M0 0H12.1725V22.7323H0V0Z" fill="#B5FD85"/>
<path d="M62.0377 14.3973H56.5171V23.5564H51.7808V1.66243H56.5171V10.5392H62.0377V1.66243H66.774V23.5564H62.0377V14.3973Z" fill="white"/>
<path d="M79.0261 7.37117H83.7625L76.1404 26.1598C75.6595 27.3517 75.0217 28.2614 74.227 28.8887C73.4324 29.516 72.345 29.8297 70.9649 29.8297H67.7655V26.2225H71.655L72.6587 23.4623L66.1344 7.37117H71.1217L73.4742 14.1777L74.9485 18.8827H75.1994L76.6109 14.1777L79.0261 7.37117Z" fill="white"/>
<path d="M83.0602 7.37117H87.7025V10.3196H87.922C88.3193 9.35772 88.8944 8.5631 89.6472 7.93577C90.4 7.30843 91.4246 6.99477 92.7211 6.99477C93.6203 6.99477 94.4358 7.16206 95.1677 7.49663C95.9205 7.83121 96.5583 8.34353 97.0811 9.0336C97.6248 9.72367 98.043 10.6019 98.3358 11.6684C98.6494 12.7349 98.8063 14 98.8063 15.4638C98.8063 16.9275 98.6494 18.1927 98.3358 19.2591C98.043 20.3256 97.6248 21.2039 97.0811 21.8939C96.5583 22.584 95.9205 23.0963 95.1677 23.4309C94.4358 23.7655 93.6203 23.9328 92.7211 23.9328C91.4246 23.9328 90.4 23.6296 89.6472 23.0231C88.8944 22.3958 88.3193 21.5907 87.922 20.6079H87.7025V29.8297H83.0602V7.37117ZM90.7137 20.3256C91.7592 20.3256 92.5643 20.0119 93.1289 19.3846C93.6935 18.7364 93.9758 17.8476 93.9758 16.7184V14.2091C93.9758 13.0799 93.6935 12.2016 93.1289 11.5743C92.5643 10.9261 91.7592 10.6019 90.7137 10.6019C89.8981 10.6019 89.1871 10.8006 88.5807 11.1979C87.9952 11.5952 87.7025 12.2225 87.7025 13.0799V17.8476C87.7025 18.705 87.9952 19.3323 88.5807 19.7296C89.1871 20.1269 89.8981 20.3256 90.7137 20.3256Z" fill="white"/>
<path d="M106.73 23.9328C104.011 23.9328 101.952 23.18 100.551 21.6744C99.1495 20.1688 98.449 18.1195 98.449 15.5265C98.449 14.2091 98.6267 13.0276 98.9822 11.9821C99.3586 10.9156 99.8814 10.0164 100.551 9.28453C101.241 8.53173 102.067 7.96713 103.029 7.59073C104.011 7.19342 105.109 6.99477 106.322 6.99477C107.535 6.99477 108.622 7.19342 109.584 7.59073C110.546 7.96713 111.362 8.51082 112.031 9.2218C112.7 9.93278 113.212 10.8006 113.568 11.8252C113.944 12.829 114.132 13.9582 114.132 15.2128V16.593H103.06V16.8753C103.06 17.9208 103.384 18.7677 104.032 19.416C104.68 20.0433 105.632 20.357 106.887 20.357C107.849 20.357 108.675 20.1792 109.365 19.8237C110.055 19.4473 110.651 18.9559 111.152 18.3495L113.662 21.0784C113.034 21.8521 112.156 22.5213 111.027 23.0859C109.898 23.6505 108.465 23.9328 106.73 23.9328ZM106.353 10.3196C105.35 10.3196 104.545 10.6333 103.938 11.2606C103.353 11.8671 103.06 12.693 103.06 13.7386V13.9895H109.584V13.7386C109.584 12.6721 109.291 11.8357 108.706 11.2293C108.141 10.6228 107.357 10.3196 106.353 10.3196Z" fill="white"/>
<path d="M114.873 19.9492H118.605V10.9783H114.873V7.37117H123.248V11.9507H123.467C123.614 11.3652 123.812 10.8006 124.063 10.2569C124.335 9.6923 124.67 9.20089 125.067 8.78267C125.485 8.34353 125.987 7.9985 126.573 7.74757C127.158 7.49663 127.848 7.37117 128.643 7.37117H130.18V11.637H126.729C125.579 11.637 124.712 11.9821 124.126 12.6721C123.541 13.3413 123.248 14.1673 123.248 15.1501V19.9492H128.58V23.5564H114.873V19.9492Z" fill="white"/>
<path d="M134.622 23.5564H129.979V1.66243H138.448C139.515 1.66243 140.466 1.82972 141.303 2.1643C142.139 2.47797 142.84 2.93801 143.404 3.54443C143.99 4.15086 144.429 4.88275 144.722 5.7401C145.014 6.59746 145.161 7.55937 145.161 8.62583C145.161 10.1733 144.826 11.5011 144.157 12.6094C143.488 13.7177 142.536 14.4496 141.303 14.8051L145.6 23.5564H140.456L136.786 15.4324H134.622V23.5564ZM137.319 11.7939C138.427 11.7939 139.191 11.5848 139.609 11.1665C140.048 10.7483 140.268 10.0582 140.268 9.09633V8.15533C140.268 7.19342 140.048 6.50336 139.609 6.08513C139.191 5.66691 138.427 5.4578 137.319 5.4578H134.622V11.7939H137.319Z" fill="white"/>
<path d="M157.601 23.5564C156.639 23.5564 155.866 23.3159 155.28 22.8349C154.694 22.3331 154.349 21.6221 154.245 20.702H154.088C153.795 21.7685 153.21 22.5735 152.332 23.1172C151.474 23.6609 150.418 23.9328 149.163 23.9328C147.595 23.9328 146.33 23.5145 145.368 22.6781C144.427 21.8207 143.957 20.6288 143.957 19.1023C143.957 17.4085 144.573 16.1538 145.807 15.3383C147.041 14.5228 148.85 14.115 151.234 14.115H153.837V13.2995C153.837 12.3376 153.607 11.6161 153.147 11.1352C152.708 10.6333 151.955 10.3824 150.889 10.3824C149.906 10.3824 149.111 10.5706 148.505 10.947C147.898 11.3234 147.376 11.8148 146.936 12.4212L144.396 10.1628C144.939 9.24271 145.786 8.48991 146.936 7.9044C148.107 7.29798 149.603 6.99477 151.422 6.99477C153.638 6.99477 155.364 7.50709 156.597 8.53173C157.852 9.53547 158.479 11.062 158.479 13.1113V19.9492H160.267V23.5564H157.601ZM150.92 20.8902C151.736 20.8902 152.426 20.6915 152.99 20.2942C153.555 19.8969 153.837 19.3219 153.837 18.5691V16.6243H151.359C149.456 16.6243 148.505 17.2621 148.505 18.5377V19.165C148.505 19.7296 148.724 20.1583 149.163 20.4511C149.603 20.7438 150.188 20.8902 150.92 20.8902Z" fill="white"/>
<path d="M167.469 5.30097C166.424 5.30097 165.692 5.09186 165.274 4.67363C164.876 4.2345 164.678 3.71172 164.678 3.1053V2.19567C164.678 1.56833 164.876 1.04556 165.274 0.627335C165.692 0.209112 166.424 0 167.469 0C168.515 0 169.236 0.209112 169.634 0.627335C170.052 1.04556 170.261 1.56833 170.261 2.19567V3.1053C170.261 3.71172 170.052 4.2345 169.634 4.67363C169.236 5.09186 168.515 5.30097 167.469 5.30097ZM160.004 19.9492H165.148V10.9783H160.004V7.37117H169.791V19.9492H174.558V23.5564H160.004V19.9492Z" fill="white"/>
<path d="M173.919 19.9492H178.875V3.9522H173.919V0.345034H183.517V19.9492H188.473V23.5564H173.919V19.9492Z" fill="white"/>
</svg>
