<svg width="160" height="24" viewBox="0 0 160 24" fill="none" xmlns="http://www.w3.org/2000/svg">
<path d="M49.9634 11.5083H45.5506V18.8295H41.7646V1.32885H45.5506V8.42439H49.9634V1.32885H53.7493V18.8295H49.9634V11.5083Z" fill="white"/>
<path d="M63.5429 5.89206H67.3289L61.2363 20.9105C60.8518 21.8633 60.342 22.5904 59.7068 23.0919C59.0717 23.5933 58.2025 23.844 57.0993 23.844H54.5419V20.9607H57.6509L58.4532 18.7543L53.2381 5.89206H57.2246L59.1051 11.3328L60.2835 15.0937H60.4841L61.6124 11.3328L63.5429 5.89206Z" fill="white"/>
<path d="M66.7675 5.89206H70.4783V8.24888H70.6538C70.9713 7.47999 71.431 6.84482 72.0328 6.34337C72.6345 5.84192 73.4535 5.59119 74.4899 5.59119C75.2086 5.59119 75.8605 5.72491 76.4455 5.99235C77.0473 6.25979 77.5571 6.66931 77.975 7.22091C78.4096 7.77251 78.7439 8.47454 78.9779 9.32701C79.2286 10.1795 79.354 11.1907 79.354 12.3608C79.354 13.5308 79.2286 14.5421 78.9779 15.3946C78.7439 16.247 78.4096 16.9491 77.975 17.5007C77.5571 18.0523 77.0473 18.4618 76.4455 18.7292C75.8605 18.9967 75.2086 19.1304 74.4899 19.1304C73.4535 19.1304 72.6345 18.888 72.0328 18.4033C71.431 17.9018 70.9713 17.2583 70.6538 16.4727H70.4783V23.844H66.7675V5.89206ZM72.8852 16.247C73.721 16.247 74.3645 15.9963 74.8158 15.4949C75.2671 14.9767 75.4928 14.2663 75.4928 13.3637V11.3579C75.4928 10.4553 75.2671 9.75324 74.8158 9.25179C74.3645 8.73362 73.721 8.47454 72.8852 8.47454C72.2333 8.47454 71.665 8.63333 71.1803 8.95092C70.7123 9.2685 70.4783 9.76995 70.4783 10.4553V14.2663C70.4783 14.9516 70.7123 15.4531 71.1803 15.7707C71.665 16.0882 72.2333 16.247 72.8852 16.247Z" fill="white"/>
<path d="M85.6875 19.1304C83.5146 19.1304 81.8681 18.5286 80.7482 17.3252C79.6283 16.1217 79.0684 14.4836 79.0684 12.4109C79.0684 11.3579 79.2104 10.4135 79.4946 9.57773C79.7955 8.72526 80.2133 8.00652 80.7482 7.42149C81.2998 6.81975 81.9601 6.36844 82.729 6.06757C83.5146 5.74998 84.3921 5.59119 85.3616 5.59119C86.3311 5.59119 87.2002 5.74998 87.9691 6.06757C88.738 6.36844 89.3899 6.80303 89.9248 7.37134C90.4597 7.93966 90.8692 8.63333 91.1534 9.45237C91.4542 10.2547 91.6047 11.1573 91.6047 12.1602V13.2634H82.754V13.4891C82.754 14.3248 83.0131 15.0018 83.5313 15.5199C84.0494 16.0214 84.81 16.2721 85.8129 16.2721C86.5818 16.2721 87.242 16.13 87.7936 15.8459C88.3452 15.545 88.8216 15.1522 89.2228 14.6675L91.2286 16.8488C90.7271 17.4672 90.0251 18.0021 89.1225 18.4534C88.2199 18.9047 87.0749 19.1304 85.6875 19.1304ZM85.3867 8.24888C84.5843 8.24888 83.9408 8.49961 83.4561 9.00106C82.988 9.4858 82.754 10.146 82.754 10.9818V11.1824H87.9691V10.9818C87.9691 10.1293 87.7351 9.46073 87.2671 8.97599C86.8158 8.49125 86.189 8.24888 85.3867 8.24888Z" fill="white"/>
<path d="M92.1966 15.9462H95.1802V8.77541H92.1966V5.89206H98.891V9.55266H99.0665C99.1835 9.08464 99.3423 8.63333 99.5429 8.19874C99.7602 7.74743 100.028 7.35463 100.345 7.02033C100.68 6.66931 101.081 6.39351 101.549 6.19293C102.017 5.99235 102.568 5.89206 103.203 5.89206H104.432V9.30193H101.674C100.755 9.30193 100.061 9.57773 99.593 10.1293C99.125 10.6642 98.891 11.3245 98.891 12.1101V15.9462H103.153V18.8295H92.1966V15.9462Z" fill="white"/>
<path d="M107.983 18.8295H104.272V1.32885H111.041C111.894 1.32885 112.654 1.46257 113.323 1.73001C113.992 1.98073 114.552 2.34847 115.003 2.8332C115.471 3.31794 115.822 3.90297 116.056 4.58829C116.29 5.2736 116.407 6.0425 116.407 6.89496C116.407 8.13188 116.139 9.19329 115.605 10.0792C115.07 10.9651 114.309 11.5501 113.323 11.8343L116.758 18.8295H112.646L109.713 12.3357H107.983V18.8295ZM110.139 9.4273C111.025 9.4273 111.635 9.26015 111.969 8.92584C112.32 8.59154 112.496 8.03995 112.496 7.27105V6.51888C112.496 5.74998 112.32 5.19839 111.969 4.86408C111.635 4.52978 111.025 4.36263 110.139 4.36263H107.983V9.4273H110.139Z" fill="white"/>
<path d="M126.351 18.8295C125.582 18.8295 124.964 18.6373 124.496 18.2528C124.028 17.8517 123.752 17.2834 123.668 16.5479H123.543C123.309 17.4004 122.841 18.0439 122.139 18.4785C121.453 18.9131 120.609 19.1304 119.606 19.1304C118.353 19.1304 117.342 18.7961 116.573 18.1275C115.82 17.4422 115.444 16.4894 115.444 15.2692C115.444 13.9153 115.937 12.9124 116.924 12.2605C117.91 11.6086 119.356 11.2827 121.261 11.2827H123.342V10.6308C123.342 9.86189 123.158 9.28522 122.791 8.90077C122.44 8.49961 121.838 8.29903 120.985 8.29903C120.2 8.29903 119.565 8.44946 119.08 8.75034C118.595 9.05121 118.177 9.44401 117.826 9.92875L115.795 8.12352C116.23 7.38806 116.907 6.78632 117.826 6.31829C118.762 5.83356 119.957 5.59119 121.412 5.59119C123.183 5.59119 124.562 6.00071 125.549 6.81975C126.552 7.62207 127.053 8.84227 127.053 10.4803V15.9462H128.482V18.8295H126.351ZM121.011 16.6983C121.662 16.6983 122.214 16.5396 122.665 16.222C123.117 15.9044 123.342 15.4447 123.342 14.843V13.2885H121.362C119.84 13.2885 119.08 13.7983 119.08 14.8179V15.3194C119.08 15.7707 119.255 16.1133 119.606 16.3473C119.957 16.5813 120.425 16.6983 121.011 16.6983Z" fill="white"/>
<path d="M134.239 4.23727C133.403 4.23727 132.818 4.07012 132.484 3.73582C132.166 3.3848 132.008 2.96692 132.008 2.48219V1.75508C132.008 1.25363 132.166 0.835754 132.484 0.501453C132.818 0.167151 133.403 0 134.239 0C135.075 0 135.651 0.167151 135.969 0.501453C136.303 0.835754 136.471 1.25363 136.471 1.75508V2.48219C136.471 2.96692 136.303 3.3848 135.969 3.73582C135.651 4.07012 135.075 4.23727 134.239 4.23727ZM128.272 15.9462H132.384V8.77541H128.272V5.89206H136.094V15.9462H139.905V18.8295H128.272V15.9462Z" fill="white"/>
<path d="M139.394 15.9462H143.356V3.15915H139.394V0.275799H147.066V15.9462H151.037V18.8295H139.394V15.9462Z" fill="white"/>
<path d="M21.3721 18.8295H11.5008V11.6312H3.66602V4.05984H21.2448V13.6722H21.7057C22.0129 12.4432 22.4299 11.2581 22.9566 10.1169C23.5272 8.93186 24.2295 7.9004 25.0634 7.02256C25.9413 6.10082 26.9947 5.3766 28.2237 4.8499C29.4526 4.32319 30.9011 4.05984 32.569 4.05984H35.795V13.0138H28.5528C26.1388 13.0138 24.3173 13.738 23.0883 15.1865C22.1823 16.2219 21.6102 17.4363 21.3721 18.8295Z" fill="white"/>
<rect y="0.658745" width="9.72999" height="18.1708" fill="#B5FD85"/>
<path d="M153.355 19.0352C151.917 19.0352 150.664 18.818 149.594 18.3834C148.541 17.9488 147.747 17.3554 147.212 16.6032L149.293 14.6726C149.794 15.2242 150.379 15.6588 151.048 15.9764C151.733 16.2773 152.511 16.4277 153.38 16.4277C154.115 16.4277 154.692 16.3191 155.11 16.1018C155.528 15.8677 155.737 15.5167 155.737 15.0487C155.737 14.681 155.595 14.4302 155.31 14.2965C155.026 14.1461 154.633 14.0291 154.132 13.9455L152.051 13.6196C151.466 13.536 150.923 13.4106 150.421 13.2435C149.92 13.0596 149.485 12.8172 149.117 12.5164C148.75 12.2155 148.457 11.8478 148.24 11.4132C148.023 10.9786 147.914 10.4521 147.914 9.83361C147.914 8.47969 148.432 7.41828 149.468 6.64939C150.505 5.88049 151.959 5.49605 153.831 5.49605C155.101 5.49605 156.18 5.67156 157.065 6.02257C157.968 6.35687 158.687 6.84161 159.222 7.47678L157.366 9.58288C156.982 9.165 156.489 8.81399 155.887 8.52983C155.285 8.24568 154.558 8.1036 153.706 8.1036C152.268 8.1036 151.549 8.53819 151.549 9.40737C151.549 9.79182 151.692 10.0593 151.976 10.2097C152.26 10.3434 152.653 10.4521 153.154 10.5356L155.21 10.8616C155.795 10.9452 156.338 11.0789 156.84 11.2627C157.341 11.4299 157.776 11.6639 158.144 11.9648C158.528 12.2656 158.829 12.6334 159.046 13.068C159.263 13.5026 159.372 14.0291 159.372 14.6475C159.372 16.0015 158.846 17.0712 157.793 17.8568C156.756 18.6424 155.277 19.0352 153.355 19.0352Z" fill="white"/>
</svg>